<svg width="138" height="150" viewBox="0 0 138 150" fill="none" xmlns="http://www.w3.org/2000/svg">
<path opacity="0.1" fill-rule="evenodd" clip-rule="evenodd" d="M65.5352 0C105.787 0 137.475 33.5607 137.475 73.8122C137.475 114.733 106.456 150 65.5352 150C26.2891 150 0 113.058 0 73.8122C0 35.2647 26.9877 0 65.5352 0Z" fill="#21B8BF"/>
<path fill-rule="evenodd" clip-rule="evenodd" d="M40.1037 86.0944H22.5V110.74C22.5 111.206 22.6847 111.655 23.0155 111.984C23.3448 112.315 23.7936 112.5 24.2604 112.5H91.1546C91.6214 112.5 92.0702 112.315 92.3994 111.984C92.7303 111.655 92.915 111.206 92.915 110.74V96.6566H45.3849C43.9837 96.6566 42.6405 96.1002 41.6511 95.1092C40.6601 94.1198 40.1037 92.7767 40.1037 91.3754L40.1037 86.0944ZM82.3527 100.177C80.4092 100.177 78.832 101.755 78.832 103.698C78.832 105.642 80.4092 107.219 82.3527 107.219C84.2962 107.219 85.8735 105.642 85.8735 103.698C85.8735 101.755 84.2962 100.177 82.3527 100.177ZM71.7905 100.177C69.847 100.177 68.2697 101.755 68.2697 103.698C68.2697 105.642 69.847 107.219 71.7905 107.219C73.734 107.219 75.3112 105.642 75.3112 103.698C75.3112 101.755 73.734 100.177 71.7905 100.177Z" fill="#21B8BF"/>
<path fill-rule="evenodd" clip-rule="evenodd" d="M40.1037 75.5321H24.2604C23.7936 75.5321 23.3448 75.7168 23.0155 76.0476C22.6847 76.3769 22.5 76.8257 22.5 77.2925V82.5736H40.1037V75.5321Z" fill="#21B8BF"/>
<path fill-rule="evenodd" clip-rule="evenodd" d="M43.6245 66.7302V91.3755C43.6245 91.8423 43.8092 92.291 44.14 92.6203C44.4693 92.9512 44.9181 93.1358 45.3849 93.1358H112.279C112.746 93.1358 113.195 92.9512 113.524 92.6203C113.855 92.291 114.039 91.8423 114.039 91.3755V66.7302H82.4232C80.1763 69.9697 76.9463 72.5238 73.0594 73.9194C70.6687 74.7807 68.8643 75.4283 68.8643 75.4283C68.4808 75.5674 68.0579 75.5674 67.6744 75.4283C67.6744 75.4283 65.87 74.7807 63.4793 73.9194C59.5924 72.5237 56.3624 69.9695 54.1155 66.7302H43.6245ZM62.9886 89.6151H73.5509C74.5222 89.6151 75.3113 88.8261 75.3113 87.8547C75.3113 86.8834 74.5222 86.0943 73.5509 86.0943H62.9886C62.0173 86.0943 61.2283 86.8834 61.2283 87.8547C61.2283 88.8261 62.0173 89.6151 62.9886 89.6151ZM52.4264 82.5736H62.9886C63.96 82.5736 64.749 81.7846 64.749 80.8132C64.749 79.8419 63.96 79.0528 62.9886 79.0528H52.4264C51.455 79.0528 50.666 79.8419 50.666 80.8132C50.666 81.7846 51.455 82.5736 52.4264 82.5736Z" fill="#21B8BF"/>
<path fill-rule="evenodd" clip-rule="evenodd" d="M82.3525 55.6972V43.5718C77.1171 43.1788 72.1564 41.0437 68.2695 37.5C64.3826 41.0435 59.422 43.1789 54.1865 43.5718V55.6972C54.1865 62.3812 58.3816 68.3452 64.6693 70.6055L68.2695 71.8998L71.8697 70.6055C78.1576 68.3454 82.3525 62.3812 82.3525 55.6972ZM78.3916 47.5728C78.3916 46.5998 77.6025 45.8124 76.6312 45.8124C74.0574 45.8124 71.5945 44.7632 69.8114 42.9077C69.6409 42.7301 69.5387 42.6248 69.5387 42.6248C69.2063 42.2798 68.7481 42.0841 68.2695 42.0841C67.7909 42.0841 67.3327 42.2798 67.0003 42.6248C67.0003 42.6248 66.8981 42.7301 66.7276 42.9077C64.9444 44.7631 62.4816 45.8124 59.9078 45.8124C58.9365 45.8124 58.1474 46.5998 58.1474 47.5728V52.942C58.1474 59.0403 61.9394 64.4953 67.6567 66.6186C68.0512 66.7664 68.4881 66.7664 68.8827 66.6186C74.5999 64.4951 78.3919 59.0403 78.3919 52.942L78.3916 47.5728Z" fill="#21B8BF"/>
<path fill-rule="evenodd" clip-rule="evenodd" d="M114.039 63.2096V57.9285C114.039 57.4617 113.855 57.0129 113.524 56.6836C113.195 56.3528 112.746 56.1681 112.279 56.1681H85.8674C85.8077 58.6358 85.2796 61.0177 84.3569 63.2096H114.039Z" fill="#21B8BF"/>
<path fill-rule="evenodd" clip-rule="evenodd" d="M50.6719 56.1681H45.3854C44.9186 56.1681 44.4698 56.3528 44.1405 56.6836C43.8097 57.0129 43.625 57.4617 43.625 57.9285V63.2096H52.1824C51.2582 61.0177 50.7317 58.6358 50.6719 56.1681Z" fill="#21B8BF"/>
<path fill-rule="evenodd" clip-rule="evenodd" d="M68.2698 46.2817C66.3899 47.8645 64.0992 48.8823 61.6685 49.213V52.9428C61.6685 57.3478 64.2776 61.3101 68.2698 63.0705C72.2621 61.3101 74.8711 57.3478 74.8711 52.9428V49.213C72.4403 48.8822 70.1494 47.866 68.2698 46.2817Z" fill="#21B8BF"/>
</svg>
