<svg width="141" height="150" viewBox="0 0 141 150" fill="none" xmlns="http://www.w3.org/2000/svg">
<path opacity="0.1" fill-rule="evenodd" clip-rule="evenodd" d="M63.6785 0C105.676 0 140.82 32.9317 140.82 74.9291C140.82 116.965 105.715 150 63.6785 150C25.235 150 0 113.373 0 74.9291C0 36.5278 25.2772 0 63.6785 0Z" fill="#66C68F"/>
<path d="M89.4914 69.4116C90.3824 69.4116 91.1926 69.4924 92.0835 69.5737L92.0829 52.4032C92.0829 46.9766 87.6282 42.522 82.2018 42.522H75.8843V40.0921C75.8843 38.6345 74.7504 37.5 73.2922 37.5C71.8346 37.5 70.7001 38.6339 70.7001 40.0921V42.522H52.8816V40.0921C52.8816 38.6345 51.7478 37.5 50.2896 37.5C48.832 37.5 47.6975 38.6339 47.6975 40.0921V42.522H41.4609C35.9548 42.522 31.5 46.9762 31.5 52.4032V86.2584C31.5 91.6849 35.9548 96.1395 41.3812 96.1395H65.4362C65.3554 95.2486 65.274 94.4384 65.274 93.5475C65.3548 80.2646 76.2084 69.4115 89.491 69.4115L89.4914 69.4116ZM36.6838 57.5056V52.4842C36.6838 49.8921 38.7895 47.7057 41.4623 47.7057H47.6989V50.1357C47.6989 51.5932 48.8328 52.7277 50.291 52.7277C51.7486 52.7277 52.8831 51.5938 52.8831 50.1357V47.7057H70.7016V50.1357C70.7016 51.5932 71.8354 52.7277 73.2936 52.7277C74.7512 52.7277 75.8857 51.5938 75.8857 50.1357V47.7057H82.2032C84.7953 47.7057 86.9008 49.8114 86.9008 52.4842V57.5056H36.6838Z" fill="#66C68F"/>
<path d="M89.4915 74.5952C79.0436 74.5952 70.5391 83.0996 70.5391 93.5476C70.5391 103.996 79.0435 112.5 89.4915 112.5C99.9393 112.5 108.444 103.996 108.444 93.5476C108.444 83.0996 99.9395 74.5952 89.4915 74.5952ZM96.6184 96.1394H89.4909C88.0333 96.1394 86.8988 95.0055 86.8988 93.5473L86.8994 84.7192C86.8994 83.2616 88.0333 82.1271 89.4915 82.1271C90.949 82.1271 92.0835 83.261 92.0835 84.7192V90.9558H96.619C98.0766 90.9558 99.2111 92.0897 99.2111 93.5479C99.2105 95.0054 98.0766 96.1394 96.6184 96.1394Z" fill="#66C68F"/>
</svg>
