<svg width="138" height="150" viewBox="0 0 138 150" fill="none" xmlns="http://www.w3.org/2000/svg">
<path opacity="0.1" fill-rule="evenodd" clip-rule="evenodd" d="M58.2308 0C104.542 0 137.982 41.4537 137.982 87.765C137.982 127.271 97.7365 150 58.2308 150C24.9467 150 0 121.049 0 87.765C0 46.6328 17.0985 0 58.2308 0Z" fill="#66C68F"/>
<path d="M30 74.3027C30.1904 72.9844 30.3369 71.6514 30.5713 70.333C31.7578 63.5508 34.6582 57.5596 39.0674 52.2861C39.2578 52.0518 39.4629 51.8174 39.7559 51.4512C39.2725 51.4512 38.9355 51.4658 38.6133 51.4512C37.4121 51.3779 36.5186 50.4111 36.5332 49.2246C36.5479 48.0674 37.4268 47.1006 38.5986 47.0713C40.752 47.0273 42.8906 47.0273 45.0439 47.0713C46.2158 47.0859 47.0947 48.0381 47.1094 49.2246C47.1387 51.3047 47.1387 53.3701 47.1094 55.4502C47.0947 56.71 46.1572 57.6475 44.9414 57.6475C43.7256 57.6621 42.7881 56.7393 42.7295 55.4795C42.7148 55.3037 42.7295 55.1426 42.7295 54.7617C42.3779 55.1719 42.1289 55.4502 41.8945 55.7432C36.7529 62.2764 33.999 69.6445 34.4238 77.9941C34.9951 88.4531 39.6387 96.8613 47.9883 103.16C52.749 106.749 58.1543 108.844 64.0869 109.415C73.2129 110.309 81.3867 107.818 88.5205 102.076C94.4531 97.3008 98.335 91.1631 100.063 83.7217C100.283 82.7988 100.43 81.8613 100.576 80.9238C100.781 79.6494 101.396 78.917 102.48 78.7266C103.477 78.5654 104.297 79.0781 104.883 80.2207C104.897 80.2646 104.956 80.2793 104.985 80.3086C104.985 80.7041 104.985 81.085 104.985 81.4805C104.839 82.1982 104.692 82.9014 104.561 83.6191C101.719 98.6338 89.0479 110.968 73.9453 113.414C72.5244 113.648 71.1035 113.795 69.6826 114C68.1738 114 66.6504 114 65.1416 114C64.9805 113.956 64.8193 113.897 64.6582 113.883C58.1396 113.385 52.1484 111.349 46.7578 107.672C37.9541 101.666 32.4902 93.4189 30.5566 82.9014C30.3223 81.5537 30.1904 80.1914 30 78.8438C30 77.335 30 75.8115 30 74.3027Z" fill="#66C68F"/>
<path d="M105 72.6914C104.224 73.9951 103.433 74.4931 102.422 74.2588C101.162 73.9805 100.708 73.0576 100.532 71.8711C100.122 69.1025 99.0968 66.5244 98.0568 63.9463C97.8664 63.4629 97.7345 62.9062 97.7638 62.3935C97.8371 61.4267 98.6427 60.665 99.5656 60.5332C100.547 60.3867 101.499 60.8555 101.909 61.793C103.184 64.7666 104.341 67.7988 104.868 71.0215C104.898 71.1826 104.956 71.3437 105.015 71.5049C105 71.915 105 72.2959 105 72.6914Z" fill="#66C68F"/>
<path d="M63.6916 39C63.7209 39.0439 63.7355 39.0879 63.7795 39.1025C64.9367 39.7031 65.4348 40.5088 65.2883 41.5049C65.1271 42.5596 64.3508 43.2188 63.091 43.4092C60.2785 43.8193 57.6125 44.7568 55.0051 45.8555C53.9064 46.3096 52.9982 46.1777 52.3098 45.4746C51.2111 44.3467 51.592 42.5596 53.0861 41.915C56.0012 40.6699 58.9895 39.6152 62.1389 39.1318C62.2268 39.1172 62.3 39.0439 62.3879 39.0146C62.8127 39 63.2521 39 63.6916 39Z" fill="#66C68F"/>
<path d="M72.6268 39C74.1795 39.3955 75.7469 39.7031 77.2703 40.1865C78.8231 40.6699 80.3465 41.2705 81.8553 41.8857C83.115 42.3984 83.6424 43.6582 83.1443 44.8154C82.6609 45.9287 81.4305 46.4414 80.2 45.9434C77.3729 44.7861 74.5164 43.7607 71.4695 43.3506C70.532 43.2188 69.8582 42.4277 69.7117 41.5195C69.5652 40.626 70.0193 39.7471 70.8836 39.2637C71.0301 39.1904 71.1619 39.0879 71.2938 39C71.7479 39 72.1873 39 72.6268 39Z" fill="#66C68F"/>
<path d="M67.5 49.9863C82.0313 49.9863 94.0283 61.9834 94.0137 76.5146C93.999 91.0605 81.9873 103.043 67.4707 103.014C52.9541 102.984 41.001 91.0312 40.9863 76.5146C40.9717 61.9834 52.9688 49.9863 67.5 49.9863ZM57.3926 83.0918C57.3633 83.0332 57.3193 82.9746 57.2901 82.916C57.7149 82.4912 58.1104 82.0225 58.5645 81.6416C59.8535 80.5576 61.2158 79.5615 62.461 78.4336C64.4092 76.6758 65.4053 74.4639 65.3027 71.7979C65.1856 68.3262 62.2412 65.5137 58.7549 65.499C55.2539 65.4844 52.2949 68.2676 52.1338 71.7246C52.0752 73.1455 52.8955 74.1855 54.1699 74.2734C55.4297 74.3613 56.3965 73.4385 56.5137 72.0176C56.5869 71.0801 57.041 70.4062 57.9199 70.0547C59.5606 69.3955 61.1426 70.7871 60.8789 72.6621C60.6885 74.083 59.7803 75.0205 58.7402 75.8701C57.4805 76.9102 56.1475 77.877 54.9463 78.9609C53.2031 80.5283 52.2217 82.5059 52.1338 84.8643C52.0752 86.5488 52.9541 87.457 54.6387 87.4717C57.3486 87.4717 60.0586 87.4717 62.7686 87.4717C64.3067 87.4717 65.3174 86.5928 65.3027 85.2598C65.2881 83.9268 64.292 83.0918 62.7246 83.0771C60.9375 83.0918 59.1651 83.0918 57.3926 83.0918ZM74.0918 74.2734C74.0918 72.0762 74.1065 69.9375 74.0918 67.7988C74.0772 66.4951 73.1397 65.5283 71.9092 65.5283C70.6787 65.5283 69.7119 66.4805 69.7119 67.7842C69.6973 70.6699 69.6973 73.541 69.7119 76.4268C69.7119 77.7891 70.6494 78.6973 72.0264 78.7119C73.8135 78.7266 75.5859 78.7119 77.3731 78.7119C77.7246 78.7119 78.0908 78.7119 78.501 78.7119C78.501 80.9385 78.4863 83.0771 78.501 85.2158C78.5156 86.5195 79.4531 87.4863 80.6836 87.4863C81.9141 87.501 82.8809 86.5342 82.8809 85.2305C82.8955 79.4004 82.8809 73.5703 82.8809 67.7402C82.8809 67.623 82.8809 67.4912 82.8516 67.374C82.6758 66.3486 81.8115 65.5723 80.7861 65.5137C79.7754 65.4551 78.8819 66.0996 78.5889 67.0957C78.501 67.418 78.4863 67.7695 78.4863 68.1064C78.4717 70.1426 78.4863 72.1934 78.4863 74.2734C77.0069 74.2734 75.6006 74.2734 74.0918 74.2734Z" fill="#66C68F"/>
<path d="M88.8135 46.0459C89.2676 46.251 89.7803 46.3975 90.1612 46.6904C92.8272 48.6973 95.1563 51.041 97.1778 53.6924C97.9688 54.7324 97.8223 56.0801 96.8848 56.8271C95.918 57.5889 94.5704 57.457 93.7647 56.4316C91.9044 54.0586 89.8096 51.9492 87.4219 50.0889C86.5723 49.4297 86.338 48.4775 86.7042 47.54C87.0411 46.6904 87.8321 46.1631 88.8135 46.0459Z" fill="#66C68F"/>
</svg>
