<svg width="132" height="150" viewBox="0 0 132 150" fill="none" xmlns="http://www.w3.org/2000/svg">
<path opacity="0.1" fill-rule="evenodd" clip-rule="evenodd" d="M56.7037 0C97.6847 0 131.445 32.6792 131.445 73.6602C131.445 115.382 98.4259 150 56.7037 150C19.5668 150 0 110.797 0 73.6602C0 37.358 20.4015 0 56.7037 0Z" fill="#21B8BF"/>
<path d="M53.6895 105C57.5419 102.835 65.9766 95.4351 68.8964 83.1543C72.546 67.8032 74.9791 55.9947 86.5364 49.5" stroke="#21B8BF" stroke-linecap="round"/>
<path d="M12.9141 63.0566C12.9141 60.9667 12.9141 58.8864 12.9141 56.7965C12.943 56.7291 12.9911 56.652 13.0007 56.5846C13.4052 54.148 14.715 52.3663 16.9398 51.3357C17.7199 50.9698 18.6156 50.8638 19.4631 50.6327C31.5306 50.6327 43.6078 50.6327 55.6753 50.6327C55.8005 50.6616 55.9257 50.6905 56.0509 50.7097C58.632 51.0565 60.4907 52.4048 61.5983 54.7547C61.8969 55.3904 62.0221 56.1127 62.2339 56.7965C62.2339 58.8864 62.2339 60.9667 62.2339 63.0566C62.0317 63.7404 61.9161 64.4723 61.6079 65.1176C60.2885 67.8528 58.083 69.23 55.0396 69.23C45.6688 69.2396 36.2979 69.23 26.9174 69.2203C26.5611 69.2203 26.3203 69.2974 26.1084 69.5959C25.7328 70.116 25.3187 70.6072 24.9142 71.108C23.6429 72.6586 21.7167 72.6297 20.4936 71.0406C20.0891 70.5205 19.7135 69.9812 19.2994 69.4707C19.1742 69.3167 18.9526 69.1818 18.76 69.1433C16.3427 68.7003 14.5898 67.3712 13.5593 65.1561C13.2511 64.5012 13.1259 63.7596 12.9141 63.0566ZM37.6173 55.5445C32.3396 55.5445 27.0619 55.5445 21.7745 55.5445C21.6011 55.5445 21.4182 55.5348 21.2448 55.5541C20.484 55.6022 19.8868 56.2186 19.8676 56.9602C19.8483 57.6825 20.4069 58.3182 21.1485 58.4145C21.3411 58.4434 21.5337 58.4337 21.7263 58.4337C32.2818 58.4337 42.8469 58.4337 53.4024 58.4337C53.5757 58.4337 53.7587 58.4434 53.9321 58.4241C54.5388 58.3663 55.03 57.9618 55.1937 57.3936C55.4827 56.4016 54.77 55.5445 53.6528 55.5445C48.3076 55.5445 42.9625 55.5445 37.6173 55.5445ZM27.8805 64.2315C27.8805 64.2219 27.8805 64.2219 27.8805 64.2315C30.0763 64.2315 32.2722 64.2412 34.468 64.2219C35.2867 64.2123 35.8838 63.6248 35.9127 62.8447C35.9416 62.1127 35.3926 61.4771 34.6125 61.3615C34.4199 61.3326 34.2273 61.3423 34.0346 61.3423C31.1646 61.3423 28.2946 61.3423 25.4246 61.3423C24.1148 61.3423 22.7954 61.3326 21.4856 61.3423C20.7247 61.3423 20.1758 61.6986 19.9639 62.2957C19.6172 63.2684 20.301 64.2219 21.3893 64.2219C23.5562 64.2412 25.7135 64.2315 27.8805 64.2315Z" fill="#21B8BF"/>
<path d="M17.0554 88.0006C16.2753 87.6058 16.1405 87.365 16.285 86.479C16.4583 85.4196 16.6413 84.3602 16.8339 83.3008C16.8917 83.0118 16.8436 82.7999 16.6124 82.5784C15.8034 81.8176 15.0233 81.0279 14.224 80.267C13.8772 79.9299 13.6557 79.5543 13.8002 79.0728C13.9543 78.5816 14.3395 78.4083 14.8307 78.3408C15.8997 78.1964 16.9591 78.023 18.0185 77.8882C18.3845 77.84 18.6157 77.7148 18.7794 77.3585C19.232 76.3665 19.7425 75.4034 20.2144 74.4211C20.4263 73.978 20.7248 73.6698 21.2353 73.6795C21.7264 73.6891 22.0154 73.9973 22.2176 74.4211C22.6992 75.413 23.2192 76.3954 23.6719 77.397C23.8356 77.7534 24.0667 77.84 24.4038 77.8882C25.5018 78.0326 26.59 78.206 27.688 78.3601C28.1406 78.4275 28.4777 78.6298 28.6222 79.0728C28.7763 79.5254 28.5933 79.8818 28.2755 80.1996C27.4472 81.0086 26.6286 81.8176 25.7907 82.617C25.5981 82.7999 25.5403 82.9637 25.5884 83.243C25.7907 84.2927 25.9544 85.3618 26.1374 86.4212C26.3011 87.365 26.1663 87.6347 25.338 88.0103C25.2417 88.0103 25.1454 88.0103 25.0491 88.0103C23.8838 87.4035 22.7281 86.7968 21.5627 86.2093C21.3894 86.1226 21.1197 86.0937 20.956 86.1708C19.7714 86.7583 18.606 87.3843 17.4407 88.0006C17.3155 88.0006 17.1806 88.0006 17.0554 88.0006Z" fill="#21B8BF"/>
<path d="M49.8008 88.0005C48.9821 87.6249 48.8377 87.3553 49.0014 86.4596C49.1844 85.3906 49.3481 84.3119 49.5504 83.2332C49.5985 82.9539 49.5407 82.7902 49.3481 82.6072C48.5391 81.8368 47.7397 81.0374 46.9307 80.2573C46.584 79.9298 46.3529 79.5639 46.5166 79.0631C46.6803 78.5719 47.0656 78.3985 47.5471 78.3311C48.6162 78.1867 49.6756 78.0133 50.735 77.8785C51.1009 77.8303 51.3321 77.7051 51.4958 77.3391C51.9484 76.3471 52.4589 75.3841 52.9308 74.4017C53.133 73.9779 53.422 73.6698 53.9132 73.6601C54.4236 73.6505 54.7221 73.9683 54.934 74.4017C55.4059 75.3841 55.9164 76.3471 56.369 77.3391C56.5328 77.6955 56.7639 77.8207 57.1299 77.8688C58.2085 78.0037 59.2872 78.1867 60.3659 78.3311C60.8378 78.3985 61.2037 78.5911 61.3482 79.0534C61.4927 79.5157 61.3001 79.8913 60.963 80.2188C60.154 80.9989 59.3642 81.7982 58.5456 82.5591C58.3145 82.7806 58.2663 82.9925 58.3241 83.2814C58.5167 84.3408 58.6997 85.4002 58.8731 86.4596C59.0175 87.3456 58.8827 87.5864 58.1026 87.9813C57.9774 87.9813 57.8426 87.9813 57.7174 87.9813C56.552 87.3649 55.3867 86.7389 54.2021 86.1418C54.048 86.0647 53.7687 86.0936 53.5953 86.1803C52.4204 86.7678 51.2647 87.3745 50.1089 87.9813C49.9934 88.0005 49.8971 88.0005 49.8008 88.0005Z" fill="#21B8BF"/>
<path d="M33.4278 88.0006C32.6284 87.625 32.4936 87.365 32.638 86.4885C32.821 85.4003 33.0233 84.312 33.1774 83.214C33.2063 83.0311 33.1196 82.771 32.9944 82.6362C32.195 81.8272 31.3764 81.0278 30.5481 80.2477C30.1918 79.9106 29.9895 79.535 30.1533 79.0439C30.3074 78.5719 30.683 78.3986 31.1453 78.3408C32.2239 78.1963 33.3026 78.023 34.3812 77.8785C34.7183 77.8304 34.9495 77.7148 35.1036 77.3777C35.5562 76.3857 36.0667 75.4226 36.5386 74.4403C36.7504 74.0069 37.0394 73.6794 37.5498 73.6794C38.0602 73.6794 38.3492 74.0069 38.5611 74.4403C39.033 75.4226 39.5434 76.3857 39.9961 77.3777C40.1502 77.7244 40.3813 77.84 40.7184 77.8785C41.8163 78.023 42.9046 78.1963 44.0025 78.3504C44.4552 78.4082 44.8019 78.6008 44.9463 79.0439C45.1004 79.5061 44.9271 79.8817 44.59 80.2092C43.7714 80.9989 42.9624 81.8079 42.1341 82.588C41.9222 82.7903 41.8645 82.9733 41.9222 83.2622C42.1245 84.3216 42.2882 85.381 42.4712 86.4404C42.6253 87.3746 42.5001 87.6057 41.6911 87.991C41.5659 87.991 41.4311 87.991 41.3059 87.991C40.1309 87.3746 38.9656 86.7486 37.7906 86.1418C37.6654 86.0744 37.4439 86.0744 37.309 86.1418C36.1341 86.7486 34.9687 87.3746 33.7938 87.991C33.6878 88.0006 33.553 88.0006 33.4278 88.0006Z" fill="#21B8BF"/>
<circle cx="97.5" cy="88.5" r="23.5" fill="#21B8BF"/>
<path fill-rule="evenodd" clip-rule="evenodd" d="M84 99.7857C84 100.374 84.2353 100.936 84.6536 101.351C85.0718 101.766 85.6397 102 86.2308 102H110.769C111.36 102 111.928 101.766 112.346 101.351C112.721 100.979 112.95 100.488 112.992 99.9674L113 99.7857C113 94.2821 108.506 89.8214 102.962 89.8214H94.0385C88.4939 89.8214 84 94.2821 84 99.7857ZM98.5 71C93.8833 71 90.1346 74.721 90.1346 79.3036C90.1346 83.8861 93.8833 87.6071 98.5 87.6071C103.117 87.6071 106.865 83.8861 106.865 79.3036C106.865 74.721 103.117 71 98.5 71Z" fill="white"/>
</svg>
